<svg id="Layer_1" data-name="Layer 1" xmlns="http://www.w3.org/2000/svg" viewBox="0 0 128 128"><defs><style>.cls-1{fill:#1d75b8;}.cls-2{fill:#2d3e50;}</style></defs><title>v</title><path class="cls-1" d="M121.76226,89.58337H96.37438a3.49138,3.49138,0,0,0-3.48737,3.4873v25.3877a3.49143,3.49143,0,0,0,3.48737,3.48737h25.38788a3.49131,3.49131,0,0,0,3.48718-3.48737V93.07068A3.49126,3.49126,0,0,0,121.76226,89.58337Zm-3.488,25.38757H99.86187V96.55865h18.41241Z"></path><path class="cls-1" d="M96.37438,38.41681h25.38788a3.49135,3.49135,0,0,0,3.48718-3.48773V9.54169a3.49129,3.49129,0,0,0-3.48718-3.48743H96.37438A3.4914,3.4914,0,0,0,92.887,9.54169V34.92908A3.49147,3.49147,0,0,0,96.37438,38.41681Zm3.48749-25.38739h18.41241V31.44208H99.86187Z"></path><path class="cls-2" d="M27.31445,27.44019a10.78775,10.78775,0,0,0,21.18146,0l1.6507-8.4873A11.367,11.367,0,0,0,38.88384,6.05426h-1.9574A11.36695,11.36695,0,0,0,25.66381,18.95288Z"></path><path class="cls-2" d="M72.6516,63.82214l-2.7439-5.07947L63.1618,46.26129a6.84357,6.84357,0,0,0-1.04089-1.45111,4.02726,4.02726,0,0,0-2.13318-1.16248c-2.78247-.57446-10.4212-2.13928-12.21844-2.37891a2.34846,2.34846,0,0,0-.95032.06689l-.25433-.087-4.939,4.939L38.96874,48.838l-.87.87671-.19354-.1936v-.06439l-.03223.03223-.03223-.03223v.06439l-.19354.1936-.87-.87671-2.65692-2.65027-4.939-4.939-.25433.087a2.34862,2.34862,0,0,0-.95032-.06689c-1.79724.23962-9.436,1.80444-12.21851,2.37891A4.02726,4.02726,0,0,0,13.625,44.81018a6.84549,6.84549,0,0,0-1.04083,1.45111l-6.746,12.48138L3.09435,63.82214l-.30786.569a4.99672,4.99672,0,0,0-.05359,4.5976l9.20874,18.24353a4.68418,4.68418,0,0,0,5.97638,2.2085,4.46936,4.46936,0,0,0,.87671-.48853v14.14105a18.83925,18.83925,0,0,0,18.85248,18.85248c.07568,0,.15051-.00391.22577-.00574.07526.00183.15009.00574.22577.00574a18.83219,18.83219,0,0,0,18.85242-18.85248V88.95221a4.47161,4.47161,0,0,0,.87677.48853,4.6841,4.6841,0,0,0,5.97632-2.2085L73.013,68.98871a4.99672,4.99672,0,0,0-.05353-4.5976ZM18.79473,79.44226,13.7821,67.48962l5.01263-6.65894Zm38.15643,0V60.83069l5.0127,6.65894Z"></path><path class="cls-1" d="M102.208,75.27637a3.54912,3.54912,0,0,0,5.019.00055l17.53552-17.5354a3.55229,3.55229,0,0,0,0-5.01971h-.00024a3.55333,3.55333,0,0,0-5.01953.00055L104.71807,67.74664l-6.32391-6.32373a3.54971,3.54971,0,1,0-5.01984,5.02026Z"></path></svg>